<?xml version="1.0" encoding="utf-8"?>
<!-- Generator: Adobe Illustrator 27.3.1, SVG Export Plug-In . SVG Version: 6.00 Build 0)  -->
<svg version="1.1" id="Layer_1" xmlns="http://www.w3.org/2000/svg" xmlns:xlink="http://www.w3.org/1999/xlink" x="0px" y="0px"
	 viewBox="0 0 19.8 20.6" style="enable-background:new 0 0 19.8 20.6;" xml:space="preserve">
<style type="text/css">
	.st0{fill:#FF7F5F;}
	.st1{fill:#FFFFFF;}
</style>
<g id="words">
	<g>
		<path class="st0" d="M2,7.1C2,7,2,6.9,1.9,6.7L2,6.7C2.1,6.8,2.2,7,2.2,7.1s0,0.3,0,0.5C2.1,7.8,2,7.9,1.8,8
			C1.7,8.2,1.5,8.3,1.3,8.3c-0.2,0-0.4,0-0.6,0C0.6,8.2,0.4,8.1,0.3,7.9C0.2,7.8,0.1,7.6,0,7.4c0-0.2,0-0.4,0-0.6
			c0-0.1,0.1-0.3,0.2-0.4c0.1-0.1,0.2-0.2,0.3-0.3l0.1,0.1C0.6,6.4,0.5,6.5,0.4,6.6C0.3,6.7,0.3,6.8,0.2,6.9
			C0.1,7.2,0.2,7.4,0.3,7.5c0.1,0.2,0.3,0.3,0.6,0.4C1.2,8,1.4,8,1.6,7.9C1.8,7.9,1.9,7.7,2,7.5C2,7.4,2,7.3,2,7.1z"/>
		<path class="st0" d="M3.5,5.1L3.3,5.4L2.8,5.2C2.6,5.1,2.4,5.1,2.2,5.3L2,5.6l0.8,0.5L2.6,6.4L0.8,5.2l0.5-0.7
			c0.1-0.1,0.2-0.2,0.2-0.3s0.2-0.1,0.3-0.1c0.1,0,0.2,0,0.2,0c0.1,0,0.1,0,0.2,0.1c0.1,0,0.1,0.1,0.2,0.2c0,0.1,0.1,0.1,0.1,0.2
			s0,0.2,0,0.3c0.1-0.1,0.2-0.1,0.3-0.1c0.1,0,0.2,0,0.3,0L3.5,5.1z M1.9,5.5l0.2-0.4C2.2,5,2.2,4.9,2.2,4.8c0-0.1-0.1-0.2-0.2-0.3
			C1.9,4.5,1.8,4.4,1.7,4.4S1.5,4.5,1.4,4.7L1.1,5L1.9,5.5z"/>
		<path class="st0" d="M3.5,2.1L3.6,2L4.5,3c0.1,0.1,0.2,0.2,0.2,0.4c0,0.1,0.1,0.3,0,0.4c0,0.1-0.1,0.3-0.3,0.4
			C4.4,4.2,4.3,4.3,4.2,4.3C4.1,4.4,4,4.4,3.9,4.4C3.7,4.4,3.4,4.3,3.2,4L2.4,3.1l0.3-0.2l0.9,1C3.7,4,3.8,4.1,3.9,4.1
			c0.1,0,0.2,0,0.3,0c0.1,0,0.1-0.1,0.2-0.1c0.1-0.1,0.2-0.3,0.2-0.4c0-0.2-0.1-0.3-0.2-0.5L3.5,2.1z"/>
		<path class="st0" d="M4.5,1.5l1.2-0.6L5.8,1L4.9,1.4l0.4,0.7l0.7-0.3L6,2L5.3,2.3L5.7,3l0.9-0.5l0.1,0.1L5.5,3.4L4.5,1.5z"/>
		<path class="st0" d="M7.4,2.3l1-0.2l0,0.2L7.1,2.6L6.6,0.5l0.4-0.1L7.4,2.3z"/>
		<path class="st0" d="M8.3,0.1L9.9,0l0,0.2l-0.6,0l0.1,2l-0.4,0l-0.1-2l-0.6,0L8.3,0.1z"/>
		<path class="st0" d="M12.6,0.4l-1,1.2l-0.1,0.7l-0.4-0.1l0.1-0.7L10.7,0l0.4,0.1l0.4,1.3l0.9-1.1L12.6,0.4z"/>
		<path class="st0" d="M14.7,1.3L15.8,2l-0.1,0.1l-0.8-0.5l-0.4,0.7l0.6,0.4L15,2.8l-0.6-0.4l-0.5,0.8l-0.3-0.2L14.7,1.3z"/>
		<path class="st0" d="M16.1,5.2L15.9,5l0.3-0.4c0.2-0.3,0.2-0.5,0.1-0.6l-0.3-0.3l-0.7,0.6L15,4.1l1.5-1.5l0.6,0.6
			c0.1,0.1,0.2,0.2,0.2,0.3c0,0.1,0.1,0.2,0.1,0.3c0,0.1,0,0.2,0,0.2c0,0.1-0.1,0.1-0.1,0.2c-0.1,0.1-0.1,0.1-0.2,0.1
			c-0.1,0-0.2,0-0.2,0c-0.1,0-0.2,0-0.3-0.1c0,0.1,0,0.2,0,0.3s0,0.2-0.1,0.2L16.1,5.2z M16,3.6l0.3,0.3c0.1,0.1,0.2,0.2,0.4,0.2
			C16.8,4,16.9,4,17,3.9c0.1-0.1,0.1-0.2,0.1-0.3c0-0.1,0-0.2-0.1-0.4L16.7,3L16,3.6z"/>
		<path class="st0" d="M18.3,4.6l0.7,1.2l-0.1,0.1L18.3,5l-0.7,0.4L18,6l-0.1,0.1l-0.4-0.6l-0.7,0.4l0.5,0.9l-0.1,0.1l-0.7-1.2
			L18.3,4.6z"/>
		<path class="st0" d="M19.3,6.6l0.4,1.3l-0.2,0L19.3,7l-0.8,0.2L18.7,8l-0.2,0l-0.2-0.7l-0.8,0.2l0.3,0.9l-0.2,0l-0.4-1.3L19.3,6.6
			z"/>
	</g>
	<g>
		<g>
			<path class="st0" d="M0.4,14.4c0.1,0.1,0.2,0.2,0.3,0.2l-0.1,0.1c-0.1-0.1-0.3-0.1-0.4-0.2s-0.2-0.2-0.3-0.4
				C0,13.9,0,13.7,0,13.5c0-0.2,0.1-0.4,0.2-0.5c0.1-0.2,0.3-0.3,0.5-0.3c0.2-0.1,0.4-0.1,0.6-0.1c0.2,0,0.4,0.1,0.5,0.2
				C1.9,13,2,13.1,2.1,13.3c0.1,0.1,0.1,0.3,0.1,0.4c0,0.1,0,0.3-0.1,0.4l-0.1-0.1C2,14,2,13.9,2,13.8c0-0.1,0-0.3-0.1-0.4
				C1.9,13.2,1.7,13,1.5,13c-0.2-0.1-0.4,0-0.7,0.1c-0.3,0.1-0.5,0.2-0.6,0.4c-0.1,0.2-0.1,0.4,0,0.6C0.3,14.2,0.3,14.3,0.4,14.4z"
				/>
			<path class="st0" d="M1.8,17l-0.2-0.3l0.3-0.3c0.2-0.2,0.3-0.4,0.1-0.6l-0.2-0.3L1.1,16l-0.2-0.3l1.7-1.2l0.5,0.7
				c0.1,0.1,0.1,0.2,0.2,0.3c0,0.1,0,0.2,0,0.3c0,0.1,0,0.2-0.1,0.2c0,0.1-0.1,0.1-0.1,0.2c-0.1,0-0.1,0.1-0.2,0.1
				c-0.1,0-0.2,0-0.2,0c-0.1,0-0.2-0.1-0.2-0.1c0,0.1,0,0.2,0,0.3c0,0.1-0.1,0.2-0.1,0.2L1.8,17z M1.9,15.3l0.3,0.4
				c0.1,0.1,0.2,0.2,0.3,0.2c0.1,0,0.2,0,0.3-0.1C2.9,15.7,3,15.7,3,15.5c0-0.1,0-0.2-0.1-0.4l-0.3-0.4L1.9,15.3z"/>
			<path class="st0" d="M5,17l0.1,0.1l-0.8,1c-0.1,0.1-0.2,0.2-0.3,0.3c-0.1,0.1-0.3,0.1-0.4,0.1c-0.1,0-0.3-0.1-0.4-0.2
				C3,18.2,3,18.1,2.9,18.1c-0.1-0.1-0.1-0.2-0.1-0.3c0-0.2,0-0.5,0.3-0.7l0.8-1l0.3,0.2l-0.9,1.1c-0.1,0.1-0.2,0.3-0.2,0.4
				c0,0.1,0,0.2,0,0.3c0,0.1,0.1,0.1,0.2,0.2c0.1,0.1,0.3,0.2,0.5,0.1c0.2,0,0.3-0.1,0.5-0.3L5,17z"/>
			<path class="st0" d="M5.5,17.4L6.7,18l-0.1,0.1l-0.9-0.4l-0.4,0.7l0.7,0.3L6,18.9l-0.7-0.3L5,19.3l0.9,0.4l-0.1,0.1l-1.2-0.6
				L5.5,17.4z"/>
			<path class="st0" d="M7,20.1l1,0.2l0,0.2l-1.3-0.3l0.5-2.1l0.4,0.1L7,20.1z"/>
			<path class="st0" d="M8.4,18.4l1.6,0.1l0,0.2l-0.6,0l-0.1,2l-0.4,0l0.1-2l-0.6,0L8.4,18.4z"/>
			<path class="st0" d="M12.2,18.2l-0.5,1.5l0.1,0.7l-0.4,0.1l-0.1-0.7l-1-1.3l0.4-0.1l0.9,1.1l0.4-1.3L12.2,18.2z"/>
			<path class="st0" d="M13.5,17.6l1.2-0.7l0.1,0.1l-0.8,0.5l0.4,0.7l0.6-0.4L15,18l-0.6,0.4l0.5,0.8l-0.3,0.2L13.5,17.6z"/>
			<path class="st0" d="M17.6,17.1l-0.3,0.3L17,17.1c-0.3-0.2-0.5-0.2-0.6-0.1l-0.3,0.3l0.6,0.7l-0.3,0.3l-1.5-1.5l0.6-0.6
				c0.1-0.1,0.2-0.2,0.3-0.2c0.1,0,0.2-0.1,0.3-0.1c0.1,0,0.2,0,0.2,0c0.1,0,0.1,0.1,0.2,0.1c0.1,0.1,0.1,0.1,0.1,0.2
				c0,0.1,0,0.2,0,0.2c0,0.1,0,0.2-0.1,0.3c0.1,0,0.2,0,0.3,0c0.1,0,0.2,0,0.2,0.1L17.6,17.1z M15.9,17.2l0.3-0.3
				c0.1-0.1,0.2-0.2,0.2-0.4s-0.1-0.2-0.1-0.3c-0.1-0.1-0.2-0.1-0.3-0.1c-0.1,0-0.2,0-0.4,0.1l-0.3,0.3L15.9,17.2z"/>
			<path class="st0" d="M16.4,15.2l0.7-1.1l0.1,0.1L16.7,15l0.7,0.4l0.4-0.6l0.1,0.1l-0.4,0.6l0.7,0.4l0.5-0.8l0.1,0.1l-0.7,1.1
				L16.4,15.2z"/>
			<path class="st0" d="M17.3,13.6l0.5-1.3l0.2,0.1l-0.3,0.9l0.8,0.3l0.3-0.7l0.2,0.1l-0.3,0.7l0.8,0.3l0.3-0.9l0.2,0.1l-0.5,1.3
				L17.3,13.6z"/>
		</g>
	</g>
</g>
<path id="bunny" class="st0" d="M13.6,5.9C13.4,5.4,12.9,5,12.4,5c-0.2,0-0.3,0-0.5,0.1c-0.3,0.1-0.6,0.4-0.7,0.8l-0.9,3.2
	c-0.2,0-0.5-0.1-0.7-0.1c-0.1,0-0.3,0-0.4,0L8.5,5.9C8.4,5.5,8.2,5.2,7.9,5.1C7.7,5,7.5,4.9,7.3,4.9c-0.5,0-0.9,0.3-1.1,0.8
	C6.1,6,6.1,6.4,6.3,6.7l1.6,2.8c-0.9,0.6-1.5,1.6-1.5,2.8c0,1.8,1.5,3.3,3.3,3.3c1.8,0,3.3-1.5,3.3-3.3c0-1.1-0.5-2.1-1.4-2.7
	l1.8-2.8C13.6,6.6,13.7,6.2,13.6,5.9z M10.1,12.9C10,13,9.7,13.3,9.7,13.4c0,0,0,0,0,0c-0.1-0.1-0.4-0.4-0.5-0.5
	C9,12.8,9,12.7,9,12.6c0-0.2,0.2-0.3,0.3-0.3c0,0,0,0,0,0c0.2,0,0.3,0.1,0.3,0.3c0-0.2,0.2-0.3,0.3-0.3c0.2,0,0.3,0.1,0.3,0.3
	C10.3,12.7,10.2,12.8,10.1,12.9z"/>
<path id="heart" class="st1" d="M10.3,12.6c0,0.1,0,0.3-0.1,0.3C10,13,9.7,13.3,9.7,13.4c0,0,0,0,0,0c-0.1-0.1-0.4-0.4-0.5-0.5
	C9,12.8,9,12.7,9,12.6c0-0.2,0.2-0.3,0.3-0.3c0,0,0,0,0,0c0.2,0,0.3,0.1,0.3,0.3c0-0.2,0.2-0.3,0.3-0.3
	C10.1,12.3,10.2,12.4,10.3,12.6z"/>
</svg>
